<?xml version="1.0" encoding="UTF-8"?>
<svg width="32px" height="32px" viewBox="0 0 32 32" version="1.1" xmlns="http://www.w3.org/2000/svg" xmlns:xlink="http://www.w3.org/1999/xlink">
    <!-- Generator: Sketch 41.2 (35397) - http://www.bohemiancoding.com/sketch -->
    <title>Outline_Color_copy_2</title>
    <desc>Created with Sketch.</desc>
    <defs></defs>
    <g id="Page-1" stroke="none" stroke-width="1" fill="none" fill-rule="evenodd">
        <g id="Outline_Color_copy_2" fill="#3B5998">
            <path d="M28,1 C29.654,1 31,2.346 31,4 L31,28 C31,29.654 29.654,31 28,31 L4,31 C2.346,31 1,29.654 1,28 L1,4 C1,2.346 2.346,1 4,1 L28,1 L28,1 Z M28,0 L4,0 C1.8,0 0,1.8 0,4 L0,28 C0,30.2 1.8,32 4,32 L28,32 C30.2,32 32,30.2 32,28 L32,4 C32,1.8 30.2,0 28,0 L28,0 Z" id="Shape"></path>
            <path d="M13.597,25.261 L17.424,25.261 L17.424,15.999 L19.977,15.999 L20.315,12.808 L17.424,12.808 L17.428,11.21 C17.428,10.378 17.507,9.932 18.701,9.932 L20.297,9.932 L20.297,6.739 L17.743,6.739 C14.676,6.739 13.597,8.288 13.597,10.891 L13.597,12.807 L11.685,12.807 L11.685,15.999 L13.597,15.999 L13.597,25.261 L13.597,25.261 Z" id="Shape"></path>
        </g>
    </g>
</svg>