<?xml version="1.0" encoding="UTF-8"?>
<svg width="32px" height="32px" viewBox="0 0 32 32" version="1.1" xmlns="http://www.w3.org/2000/svg" xmlns:xlink="http://www.w3.org/1999/xlink">
    <!-- Generator: Sketch 41.2 (35397) - http://www.bohemiancoding.com/sketch -->
    <title>media</title>
    <desc>Created with Sketch.</desc>
    <defs></defs>
    <g id="Page-1" stroke="none" stroke-width="1" fill="none" fill-rule="evenodd">
        <g id="media">
            <g id="Layer_1">
                <g id="XMLID_1_">
                    <path d="M28,1 C29.654,1 31,2.346 31,4 L31,28 C31,29.654 29.654,31 28,31 L4,31 C2.346,31 1,29.654 1,28 L1,4 C1,2.346 2.346,1 4,1 L28,1 L28,1 Z M28,0 L4,0 C1.8,0 0,1.8 0,4 L0,28 C0,30.2 1.8,32 4,32 L28,32 C30.2,32 32,30.2 32,28 L32,4 C32,1.8 30.2,0 28,0 L28,0 Z" id="Shape" fill="#833AB4"></path>
                    <path d="M16,8.74054054 C11.4162162,8.74054054 7.74054054,12.4594595 7.74054054,17 C7.74054054,21.5405405 11.4162162,25.2594595 16,25.2594595 C20.5837838,25.2594595 24.2594595,21.5837838 24.2594595,17 C24.2594595,12.4162162 20.5837838,8.74054054 16,8.74054054 Z M16,22.0594595 C13.1891892,22.0594595 10.9405405,19.8108108 10.9405405,17 C10.9405405,14.1891892 13.1891892,11.9405405 16,11.9405405 C18.8108108,11.9405405 21.0594595,14.1891892 21.0594595,17 C21.0594595,19.8108108 18.8108108,22.0594595 16,22.0594595 Z" id="XMLID_3_" stroke="#833AB4"></path>
                    <ellipse id="XMLID_2_" stroke="#833AB4" cx="25.3027027" cy="6.78378378" rx="1.98918919" ry="1.98918919"></ellipse>
                </g>
            </g>
        </g>
    </g>
</svg>