<?xml version="1.0" encoding="UTF-8"?>
<svg width="32px" height="32px" viewBox="0 0 32 32" version="1.1" xmlns="http://www.w3.org/2000/svg" xmlns:xlink="http://www.w3.org/1999/xlink">
    <!-- Generator: Sketch 41.2 (35397) - http://www.bohemiancoding.com/sketch -->
    <title>Outline_Color_copy_2</title>
    <desc>Created with Sketch.</desc>
    <defs></defs>
    <g id="Page-1" stroke="none" stroke-width="1" fill="none" fill-rule="evenodd">
        <g id="Outline_Color_copy_2" fill="#33CCFF">
            <path d="M28,1 C29.654,1 31,2.346 31,4 L31,28 C31,29.654 29.654,31 28,31 L4,31 C2.346,31 1,29.654 1,28 L1,4 C1,2.346 2.346,1 4,1 L28,1 L28,1 Z M28,0 L4,0 C1.8,0 0,1.8 0,4 L0,28 C0,30.2 1.8,32 4,32 L28,32 C30.2,32 32,30.2 32,28 L32,4 C32,1.8 30.2,0 28,0 L28,0 Z" id="Shape"></path>
            <path d="M18.328,8.56 C16.665,9.165 15.614,10.726 15.734,12.434 L15.774,13.093 L15.109,13.012 C12.688,12.703 10.572,11.654 8.776,9.891 L7.897,9.017 L7.671,9.663 C7.192,11.102 7.498,12.623 8.496,13.645 C9.028,14.21 8.908,14.291 7.991,13.954 C7.672,13.847 7.392,13.766 7.366,13.806 C7.273,13.901 7.592,15.124 7.845,15.609 C8.191,16.282 8.896,16.94 9.668,17.331 L10.32,17.64 L9.549,17.653 C8.804,17.653 8.778,17.666 8.858,17.95 C9.124,18.824 10.175,19.753 11.346,20.156 L12.171,20.438 L11.453,20.869 C10.389,21.489 9.138,21.838 7.887,21.864 C7.288,21.877 6.796,21.931 6.796,21.972 C6.796,22.106 8.42,22.859 9.364,23.156 C12.198,24.03 15.564,23.653 18.092,22.16 C19.888,21.097 21.684,18.985 22.523,16.94 C22.976,15.851 23.428,13.86 23.428,12.906 C23.428,12.287 23.468,12.206 24.213,11.467 C24.652,11.037 25.064,10.566 25.144,10.431 C25.277,10.175 25.263,10.175 24.585,10.404 C23.454,10.808 23.294,10.754 23.854,10.149 C24.266,9.719 24.759,8.938 24.759,8.71 C24.759,8.67 24.56,8.737 24.333,8.858 C24.094,8.993 23.562,9.195 23.162,9.315 L22.44,9.543 L21.788,9.099 C21.429,8.857 20.924,8.588 20.657,8.507 C19.978,8.318 18.94,8.345 18.328,8.56 Z" id="Shape"></path>
        </g>
    </g>
</svg>